<svg xmlns="http://www.w3.org/2000/svg" width="168" height="168">
  <path d="M68.5 42.598c-12.624.269-25.308 1.713-37.436 5.338-4.095 1.192-7.069 5.308-6.926 9.569.011 4.102 2.887 7.977 6.808 9.181 2.249.768 4.706.536 6.914-.254 6.301-1.806 12.87-2.878 19.33-3.52 1.112-.101 2.472-.223 3.616-.301 5.08-.369 10.238-.458 15.274-.33 3.816.107 7.798.36 11.461.725a151.4 151.4 0 0 1 8.691 1.124c3.707.586 7.423 1.327 11.002 2.209 8.941 2.201 17.772 5.388 25.758 10.169 3.494 1.849 8.077 1.313 11.02-1.342 3.142-2.68 4.238-7.42 2.584-11.205-.942-2.343-2.88-4.145-5.112-5.258-11.878-6.79-25.125-10.882-38.531-13.35C91.6 43.28 80.035 42.402 68.5 42.597Zm-29.936 38.51v57.285c15.54-8.967 31.077-17.938 46.616-26.907v25.444h18.726V79.107H85.18v25.45L38.564 77.643v3.464zm72.137 0v55.822h18.727V79.107H110.7v2z" style="fill:#fff;fill-opacity:1;stroke:none"/>
  <path d="M83.996.277C37.747.277.254 37.771.254 84.02c0 46.25 37.493 83.74 83.742 83.74 46.254 0 83.744-37.49 83.744-83.74C167.74 37.774 130.25.28 83.994.28l.002-.004zM71.252 44.568c24.36-.062 50.85 4.938 70.271 16.467a7.825 7.825 0 0 1 2.74 10.735c-2.2 3.722-7.02 4.948-10.73 2.738h-.004c-26.99-16.031-71.52-17.505-97.289-9.684-4.138 1.255-8.513-1.08-9.767-5.219a7.836 7.836 0 0 1 5.22-9.771c11.093-3.368 24.943-5.228 39.559-5.266zm-30.688 36.54L87.18 108.02V81.107h14.726v53.823H87.18V108.02L40.564 134.93V81.107zm72.137 0h14.727v53.822H112.7V81.107z" style="stroke:none;fill:#1ed760;fill-opacity:1"/>
</svg>
